<?xml version="1.0" encoding="UTF-8" standalone="no"?><!DOCTYPE svg PUBLIC "-//W3C//DTD SVG 1.1//EN" "http://www.w3.org/Graphics/SVG/1.1/DTD/svg11.dtd"><svg width="100%" height="100%" viewBox="0 0 800 447" version="1.1" xmlns="http://www.w3.org/2000/svg" xmlns:xlink="http://www.w3.org/1999/xlink" xml:space="preserve" xmlns:serif="http://www.serif.com/" style="fill-rule:evenodd;clip-rule:evenodd;stroke-linejoin:round;stroke-miterlimit:1.41421;"><rect id="redBG" x="0" y="0" width="800" height="447" style="fill:#f00;"/><path id="blackBG" d="M267.463,133c28.922,-42.253 77.515,-70 132.537,-70c55.022,0 103.615,27.747 132.537,70l267.463,0l0,181l-267.463,0c-28.922,42.253 -77.515,70 -132.537,70c-55.022,0 -103.615,-27.747 -132.537,-70l-267.463,0l0,-181l267.463,0Z"/><path d="M400.715,45.001c54.2,0.321 106.886,25.854 140.801,69.744l0.196,0.255l258.288,0l0,217l-258.288,0c-0.2,0.261 -0.401,0.521 -0.603,0.782c-28.56,36.68 -71.913,61.903 -118.544,67.801c-59.293,7.499 -121.484,-16.848 -159.925,-63.131c-1.418,-1.707 -2.8,-3.442 -4.157,-5.197l-0.195,-0.255l-258.288,0l0,-217l258.288,0c0.2,-0.261 0.402,-0.521 0.603,-0.782c33.199,-42.634 85.41,-68.678 139.679,-69.212c0.715,-0.005 1.43,-0.006 2.145,-0.005Zm-1.359,18c-52.008,0.308 -102.534,27.279 -131.893,69.999l-267.463,0l0,181l267.463,0c25.166,36.618 66.007,62.337 110.364,68.478c41.773,5.783 85.72,-5.606 119.404,-31.308c13.648,-10.414 25.6,-23.048 35.306,-37.17l267.463,0l0,-181l-267.463,0c-29.254,-42.567 -79.42,-69.484 -131.249,-69.995c-0.644,-0.004 -1.288,-0.005 -1.932,-0.004Z" style="fill:#fff;fill-rule:nonzero;"/><path d="M400.69,51.465c51.805,0.306 102.577,24.835 134.918,66.209c1.21,1.549 2.879,3.79 2.879,3.79l261.513,0l0,204.072l-261.513,0c-0.18,0.244 -0.361,0.486 -0.541,0.729c-27.409,36.584 -69.643,61.833 -115.524,67.819c-42.506,5.546 -86.947,-5.38 -121.998,-30.314c-14.808,-10.534 -27.912,-23.439 -38.753,-38.02l-0.158,-0.214l-261.513,0l0,-204.072l261.513,0c0.18,-0.244 0.361,-0.487 0.541,-0.73c31.158,-41.581 80.641,-67.348 131.758,-69.161c2.293,-0.081 4.59,-0.112 6.878,-0.108Zm-1.334,11.536c-52.008,0.308 -102.534,27.279 -131.893,69.999l-267.463,0l0,181l267.463,0c25.166,36.618 66.007,62.337 110.364,68.478c41.773,5.783 85.72,-5.606 119.404,-31.308c13.648,-10.414 25.6,-23.048 35.306,-37.17l267.463,0l0,-181l-267.463,0c-29.254,-42.567 -79.42,-69.484 -131.249,-69.995c-0.644,-0.004 -1.288,-0.005 -1.932,-0.004Z" style="fill:#fe0000;fill-rule:nonzero;"/><g id="stars"><path d="M400,78.511l5.086,15.652l16.458,0l-13.315,9.674l5.086,15.652l-13.315,-9.673l-13.315,9.673l5.086,-15.652l-13.315,-9.674l16.458,0l5.086,-15.652Z" style="fill:#ebebeb;"/><path d="M400,327.511l5.086,15.652l16.458,0l-13.315,9.674l5.086,15.652l-13.315,-9.673l-13.315,9.673l5.086,-15.652l-13.315,-9.674l16.458,0l5.086,-15.652Z" style="fill:#ebebeb;"/><path d="M467,98.511l5.086,15.652l16.458,0l-13.315,9.674l5.086,15.652l-13.315,-9.673l-13.315,9.673l5.086,-15.652l-13.315,-9.674l16.458,0l5.086,-15.652Z" style="fill:#ebebeb;"/><path d="M467,307.184l5.086,15.653l16.458,0l-13.315,9.674l5.086,15.652l-13.315,-9.674l-13.315,9.674l5.086,-15.652l-13.315,-9.674l16.458,0l5.086,-15.653Z" style="fill:#ebebeb;"/><path d="M333,98.511l5.086,15.652l16.458,0l-13.315,9.674l5.086,15.652l-13.315,-9.673l-13.315,9.673l5.086,-15.652l-13.315,-9.674l16.458,0l5.086,-15.652Z" style="fill:#ebebeb;"/><path d="M333,307.184l5.086,15.653l16.458,0l-13.315,9.674l5.086,15.652l-13.315,-9.674l-13.315,9.674l5.086,-15.652l-13.315,-9.674l16.458,0l5.086,-15.653Z" style="fill:#ebebeb;"/></g><g><path d="M244,251.5l27,-27.5l-9,0l-29,-28.5l67,0l23,-23l15,0l48,98l-19,-18l-22,0l-24,-25l-7,0l-46,47l-15,0l-9,-8l0,-15Z" style="fill:#fff;"/><path d="M400,279l-44,-99l44,-13l44,13l-44,99Z" style="fill:#fff;"/><path d="M556,251.5l-27,-27.5l9,0l29,-28.5l-67,0l-23,-23l-15,0l-48,98l19,-18l22,0l24,-25l7,0l46,47l15,0l9,-8l0,-15Z" style="fill:#fff;"/></g></svg>